# xmcd CD database file
#
# Track frame offsets:
#	150
#	22350
#	40875
#	62325
#	84750
#	105075
#	126450
#	144900
#	163125
#	185250
#	209400
#	229425
#	250650
#	274500
#	298350
#
# Disc length: 4258 seconds
#
# Revision: 1
# Processed by: cddbd v1.5.1PL2 Copyright (c) Steve Scherf et al.
# Submitted via: freeDBTagger 0.8.2.1
#
DISCID=d510a00f
DTITLE=杉山清貴 - KT'S BEST-NATSU NO HI NO MELODY-
DYEAR=2005
DGENRE=rock
TTITLE0=さよならのオーシャン
TTITLE1=Kona Wind
TTITLE2=REALTIME TO PARADISE
TTITLE3=風のLONELY WAY
TTITLE4=DOUBLE RAINBOW
TTITLE5=渚のすべて(Morning Moon, Rising Sun)
TTITLE6=SHADE
TTITLE7=LIVIN' IN A PARADISE
TTITLE8=OCEAN SIDE COMPANY
TTITLE9=NEVER END
TTITLE10=EXiT
TTITLE11=Summer Regret
TTITLE12=Heart of the sea
TTITLE13=Bay area kids
TTITLE14=夏の日のメロディー
EXTD=
EXTT0=
EXTT1=
EXTT2=
EXTT3=
EXTT4=
EXTT5=
EXTT6=
EXTT7=
EXTT8=
EXTT9=
EXTT10=
EXTT11=
EXTT12=
EXTT13=
EXTT14=
PLAYORDER=
